<svg xmlns="http://www.w3.org/2000/svg" width="582" height="428" viewBox="0 0 582 428" role="img" aria-label="Waste playbook coverage: 31 playbooks across 8 categories and 4 providers">
<rect width="582" height="428" rx="10" fill="#ffffff" stroke="#c9cdd4"/>
<text x="16" y="28" font-family="Segoe UI, Helvetica, Arial, sans-serif" font-size="13" font-weight="600" fill="#1a1d23">Named waste-pattern runbook coverage (31 playbooks)</text>
<text x="232" y="42" font-family="Segoe UI, Helvetica, Arial, sans-serif" font-size="11" font-weight="600" fill="#5b6370" text-anchor="middle">aws</text>
<text x="328" y="42" font-family="Segoe UI, Helvetica, Arial, sans-serif" font-size="11" font-weight="600" fill="#5b6370" text-anchor="middle">azure</text>
<text x="424" y="42" font-family="Segoe UI, Helvetica, Arial, sans-serif" font-size="11" font-weight="600" fill="#5b6370" text-anchor="middle">gcp</text>
<text x="520" y="42" font-family="Segoe UI, Helvetica, Arial, sans-serif" font-size="11" font-weight="600" fill="#5b6370" text-anchor="middle">cross-cloud</text>
<text x="176" y="72" font-family="Segoe UI, Helvetica, Arial, sans-serif" font-size="11" fill="#1a1d23" text-anchor="end">orphaned</text>
<rect x="187" y="51" width="90" height="34" rx="6" fill="#cdec8a"/>
<text x="232" y="72" font-family="Segoe UI, Helvetica, Arial, sans-serif" font-size="13" font-weight="600" fill="#1a1d23" text-anchor="middle">4</text>
<rect x="283" y="51" width="90" height="34" rx="6" fill="#e2f4b8"/>
<text x="328" y="72" font-family="Segoe UI, Helvetica, Arial, sans-serif" font-size="13" font-weight="600" fill="#1a1d23" text-anchor="middle">1</text>
<rect x="379" y="51" width="90" height="34" rx="6" fill="#e2f4b8"/>
<text x="424" y="72" font-family="Segoe UI, Helvetica, Arial, sans-serif" font-size="13" font-weight="600" fill="#1a1d23" text-anchor="middle">1</text>
<rect x="475" y="51" width="90" height="34" rx="6" fill="#e2f4b8"/>
<text x="520" y="72" font-family="Segoe UI, Helvetica, Arial, sans-serif" font-size="13" font-weight="600" fill="#1a1d23" text-anchor="middle">1</text>
<text x="176" y="112" font-family="Segoe UI, Helvetica, Arial, sans-serif" font-size="11" fill="#1a1d23" text-anchor="end">idle</text>
<rect x="187" y="91" width="90" height="34" rx="6" fill="#cdec8a"/>
<text x="232" y="112" font-family="Segoe UI, Helvetica, Arial, sans-serif" font-size="13" font-weight="600" fill="#1a1d23" text-anchor="middle">4</text>
<rect x="283" y="91" width="90" height="34" rx="6" fill="#e2f4b8"/>
<text x="328" y="112" font-family="Segoe UI, Helvetica, Arial, sans-serif" font-size="13" font-weight="600" fill="#1a1d23" text-anchor="middle">1</text>
<rect x="379" y="91" width="90" height="34" rx="6" fill="#e2f4b8"/>
<text x="424" y="112" font-family="Segoe UI, Helvetica, Arial, sans-serif" font-size="13" font-weight="600" fill="#1a1d23" text-anchor="middle">1</text>
<rect x="475" y="91" width="90" height="34" rx="6" fill="#ffffff" stroke="#c9cdd4" stroke-dasharray="4 3"/>
<text x="520" y="112" font-family="Segoe UI, Helvetica, Arial, sans-serif" font-size="12" fill="#c9cdd4" text-anchor="middle">-</text>
<text x="176" y="152" font-family="Segoe UI, Helvetica, Arial, sans-serif" font-size="11" fill="#1a1d23" text-anchor="end">overprovisioned</text>
<rect x="187" y="131" width="90" height="34" rx="6" fill="#8bc32f"/>
<text x="232" y="152" font-family="Segoe UI, Helvetica, Arial, sans-serif" font-size="13" font-weight="600" fill="#1a1d23" text-anchor="middle">7</text>
<rect x="283" y="131" width="90" height="34" rx="6" fill="#e2f4b8"/>
<text x="328" y="152" font-family="Segoe UI, Helvetica, Arial, sans-serif" font-size="13" font-weight="600" fill="#1a1d23" text-anchor="middle">2</text>
<rect x="379" y="131" width="90" height="34" rx="6" fill="#e2f4b8"/>
<text x="424" y="152" font-family="Segoe UI, Helvetica, Arial, sans-serif" font-size="13" font-weight="600" fill="#1a1d23" text-anchor="middle">1</text>
<rect x="475" y="131" width="90" height="34" rx="6" fill="#ffffff" stroke="#c9cdd4" stroke-dasharray="4 3"/>
<text x="520" y="152" font-family="Segoe UI, Helvetica, Arial, sans-serif" font-size="12" fill="#c9cdd4" text-anchor="middle">-</text>
<text x="176" y="192" font-family="Segoe UI, Helvetica, Arial, sans-serif" font-size="11" fill="#1a1d23" text-anchor="end">commitment-mismatch</text>
<rect x="187" y="171" width="90" height="34" rx="6" fill="#e2f4b8"/>
<text x="232" y="192" font-family="Segoe UI, Helvetica, Arial, sans-serif" font-size="13" font-weight="600" fill="#1a1d23" text-anchor="middle">1</text>
<rect x="283" y="171" width="90" height="34" rx="6" fill="#e2f4b8"/>
<text x="328" y="192" font-family="Segoe UI, Helvetica, Arial, sans-serif" font-size="13" font-weight="600" fill="#1a1d23" text-anchor="middle">1</text>
<rect x="379" y="171" width="90" height="34" rx="6" fill="#e2f4b8"/>
<text x="424" y="192" font-family="Segoe UI, Helvetica, Arial, sans-serif" font-size="13" font-weight="600" fill="#1a1d23" text-anchor="middle">1</text>
<rect x="475" y="171" width="90" height="34" rx="6" fill="#ffffff" stroke="#c9cdd4" stroke-dasharray="4 3"/>
<text x="520" y="192" font-family="Segoe UI, Helvetica, Arial, sans-serif" font-size="12" fill="#c9cdd4" text-anchor="middle">-</text>
<text x="176" y="232" font-family="Segoe UI, Helvetica, Arial, sans-serif" font-size="11" fill="#1a1d23" text-anchor="end">schedule-blindness</text>
<rect x="187" y="211" width="90" height="34" rx="6" fill="#ffffff" stroke="#c9cdd4" stroke-dasharray="4 3"/>
<text x="232" y="232" font-family="Segoe UI, Helvetica, Arial, sans-serif" font-size="12" fill="#c9cdd4" text-anchor="middle">-</text>
<rect x="283" y="211" width="90" height="34" rx="6" fill="#ffffff" stroke="#c9cdd4" stroke-dasharray="4 3"/>
<text x="328" y="232" font-family="Segoe UI, Helvetica, Arial, sans-serif" font-size="12" fill="#c9cdd4" text-anchor="middle">-</text>
<rect x="379" y="211" width="90" height="34" rx="6" fill="#ffffff" stroke="#c9cdd4" stroke-dasharray="4 3"/>
<text x="424" y="232" font-family="Segoe UI, Helvetica, Arial, sans-serif" font-size="12" fill="#c9cdd4" text-anchor="middle">-</text>
<rect x="475" y="211" width="90" height="34" rx="6" fill="#e2f4b8"/>
<text x="520" y="232" font-family="Segoe UI, Helvetica, Arial, sans-serif" font-size="13" font-weight="600" fill="#1a1d23" text-anchor="middle">1</text>
<text x="176" y="272" font-family="Segoe UI, Helvetica, Arial, sans-serif" font-size="11" fill="#1a1d23" text-anchor="end">modernization</text>
<rect x="187" y="251" width="90" height="34" rx="6" fill="#e2f4b8"/>
<text x="232" y="272" font-family="Segoe UI, Helvetica, Arial, sans-serif" font-size="13" font-weight="600" fill="#1a1d23" text-anchor="middle">1</text>
<rect x="283" y="251" width="90" height="34" rx="6" fill="#ffffff" stroke="#c9cdd4" stroke-dasharray="4 3"/>
<text x="328" y="272" font-family="Segoe UI, Helvetica, Arial, sans-serif" font-size="12" fill="#c9cdd4" text-anchor="middle">-</text>
<rect x="379" y="251" width="90" height="34" rx="6" fill="#ffffff" stroke="#c9cdd4" stroke-dasharray="4 3"/>
<text x="424" y="272" font-family="Segoe UI, Helvetica, Arial, sans-serif" font-size="12" fill="#c9cdd4" text-anchor="middle">-</text>
<rect x="475" y="251" width="90" height="34" rx="6" fill="#ffffff" stroke="#c9cdd4" stroke-dasharray="4 3"/>
<text x="520" y="272" font-family="Segoe UI, Helvetica, Arial, sans-serif" font-size="12" fill="#c9cdd4" text-anchor="middle">-</text>
<text x="176" y="312" font-family="Segoe UI, Helvetica, Arial, sans-serif" font-size="11" fill="#1a1d23" text-anchor="end">ai-ml-inefficiency</text>
<rect x="187" y="291" width="90" height="34" rx="6" fill="#ffffff" stroke="#c9cdd4" stroke-dasharray="4 3"/>
<text x="232" y="312" font-family="Segoe UI, Helvetica, Arial, sans-serif" font-size="12" fill="#c9cdd4" text-anchor="middle">-</text>
<rect x="283" y="291" width="90" height="34" rx="6" fill="#ffffff" stroke="#c9cdd4" stroke-dasharray="4 3"/>
<text x="328" y="312" font-family="Segoe UI, Helvetica, Arial, sans-serif" font-size="12" fill="#c9cdd4" text-anchor="middle">-</text>
<rect x="379" y="291" width="90" height="34" rx="6" fill="#ffffff" stroke="#c9cdd4" stroke-dasharray="4 3"/>
<text x="424" y="312" font-family="Segoe UI, Helvetica, Arial, sans-serif" font-size="12" fill="#c9cdd4" text-anchor="middle">-</text>
<rect x="475" y="291" width="90" height="34" rx="6" fill="#e2f4b8"/>
<text x="520" y="312" font-family="Segoe UI, Helvetica, Arial, sans-serif" font-size="13" font-weight="600" fill="#1a1d23" text-anchor="middle">2</text>
<text x="176" y="352" font-family="Segoe UI, Helvetica, Arial, sans-serif" font-size="11" fill="#1a1d23" text-anchor="end">egress</text>
<rect x="187" y="331" width="90" height="34" rx="6" fill="#e2f4b8"/>
<text x="232" y="352" font-family="Segoe UI, Helvetica, Arial, sans-serif" font-size="13" font-weight="600" fill="#1a1d23" text-anchor="middle">1</text>
<rect x="283" y="331" width="90" height="34" rx="6" fill="#ffffff" stroke="#c9cdd4" stroke-dasharray="4 3"/>
<text x="328" y="352" font-family="Segoe UI, Helvetica, Arial, sans-serif" font-size="12" fill="#c9cdd4" text-anchor="middle">-</text>
<rect x="379" y="331" width="90" height="34" rx="6" fill="#ffffff" stroke="#c9cdd4" stroke-dasharray="4 3"/>
<text x="424" y="352" font-family="Segoe UI, Helvetica, Arial, sans-serif" font-size="12" fill="#c9cdd4" text-anchor="middle">-</text>
<rect x="475" y="331" width="90" height="34" rx="6" fill="#ffffff" stroke="#c9cdd4" stroke-dasharray="4 3"/>
<text x="520" y="352" font-family="Segoe UI, Helvetica, Arial, sans-serif" font-size="12" fill="#c9cdd4" text-anchor="middle">-</text>
<text x="16" y="388" font-family="Segoe UI, Helvetica, Arial, sans-serif" font-size="10.5" fill="#5b6370">Runbook coverage only - the reference library covers these themes even where no runbook exists. A dashed cell is a known gap</text>
<text x="16" y="403" font-family="Segoe UI, Helvetica, Arial, sans-serif" font-size="10.5" fill="#5b6370">with its backlog public in docs/ROADMAP.md. Generated by scripts/render-coverage-heatmap.py from the playbook frontmatter (CI-gated).</text>
</svg>
